<?xml version="1.0" encoding="iso-8859-1"?>
<!-- Uploaded to: SVG Repo, www.svgrepo.com, Generator: SVG Repo Mixer Tools -->
<svg height="800px" width="800px" version="1.1" id="Layer_1" xmlns="http://www.w3.org/2000/svg" xmlns:xlink="http://www.w3.org/1999/xlink" 
	 viewBox="0 0 512.001 512.001" xml:space="preserve">
<path style="fill:#FFDA79;" d="M494.933,506.55H17.067C7.641,506.55,0,498.909,0,489.484V176.399
	c0-9.426,7.641-17.067,17.067-17.067h477.867c9.426,0,17.067,7.641,17.067,17.067v313.086
	C512,498.909,504.359,506.55,494.933,506.55z"/>
<path style="fill:#FFD155;" d="M494.933,159.331H256V506.55h238.933c9.426,0,17.067-7.641,17.067-17.066V176.397
	C512,166.973,504.359,159.331,494.933,159.331z"/>
<path style="fill:#FFC72D;" d="M505.644,164.33C418.806,107.433,330.422,49.53,268.885,9.192c-7.824-5.125-17.945-5.125-25.769,0
	C181.212,49.77,93.315,107.353,6.356,164.33H25.85c160.326,114.396,113.889,82.376,217.267,150.14
	c7.822,5.125,17.945,5.125,25.769,0c103.373-67.759,56.942-35.744,217.267-150.14L505.644,164.33L505.644,164.33z"/>
<path style="fill:#FFBE00;" d="M268.885,9.192c-3.911-2.562-8.398-3.844-12.885-3.844v312.964c4.487,0,8.972-1.281,12.885-3.844
	c103.373-67.759,56.942-35.745,217.267-150.14h19.493C418.806,107.433,330.422,49.53,268.885,9.192z"/>
<g>
	<path style="fill:#E6E7E8;" d="M245.734,334.806l-124.567-81.613c-5.284-3.462-8.468-9.352-8.468-15.67V74.183
		c0-10.345,8.387-18.732,18.732-18.732H380.57c10.345,0,18.732,8.387,18.732,18.732v163.342c0,6.316-3.183,12.208-8.468,15.67
		l-124.567,81.613C260.031,338.891,251.969,338.891,245.734,334.806z"/>
	<path style="fill:#E6E7E8;" d="M380.57,55.452H256V337.87c3.574,0,7.149-1.02,10.266-3.063l124.567-81.613
		c5.284-3.46,8.468-9.352,8.468-15.668V74.183C399.301,63.837,390.914,55.452,380.57,55.452z"/>
</g>
<g>
	<path style="fill:#65C6BB;" d="M299.596,177.38h-87.191c-10.345,0-18.732-8.387-18.732-18.732s8.387-18.732,18.732-18.732h87.191
		c10.345,0,18.732,8.387,18.732,18.732S309.941,177.38,299.596,177.38z"/>
	<path style="fill:#65C6BB;" d="M299.596,239.014h-87.191c-10.345,0-18.732-8.387-18.732-18.732s8.387-18.732,18.732-18.732h87.191
		c10.345,0,18.732,8.387,18.732,18.732C318.328,230.628,309.941,239.014,299.596,239.014z"/>
</g>
<path style="fill:#FFD155;" d="M512,176.399c0-9.426-7.641-17.067-17.067-17.067h-5.093L256,312.537L22.16,159.331
	C6.266,159.331,0,161.956,0,185.621l150.434,98.56L0,483.772v5.711c0,9.426,7.641,17.067,17.067,17.067h8.508l153.473-203.622
	l67.599,44.289c5.681,3.721,13.026,3.721,18.707,0l67.599-44.289L486.426,506.55c3.168,0,25.574,2.496,25.574-17.067v-5.712
	l-150.434-199.59L512,185.621V176.399z"/>
<path style="fill:#FFC72D;" d="M512,176.397c0-9.426-7.641-17.067-17.067-17.067h-5.093L256,312.537v37.47
	c3.257,0,6.514-0.93,9.353-2.791l67.599-44.289L486.426,506.55c3.168,0,25.574,2.496,25.574-17.066v-5.712L361.566,284.181
	L512,185.621V176.397z"/>
<g>
	<path style="fill:#20B8AE;" d="M299.596,139.917H256v37.463h43.596c10.345,0,18.732-8.387,18.732-18.732
		C318.328,148.302,309.941,139.917,299.596,139.917z"/>
	<path style="fill:#20B8AE;" d="M299.596,201.55H256v37.463h43.596c10.345,0,18.732-8.387,18.732-18.732
		S309.941,201.55,299.596,201.55z"/>
</g>
</svg>