<?xml version="1.0" encoding="utf-8"?>

<!-- Uploaded to: SVG Repo, www.svgrepo.com, Generator: SVG Repo Mixer Tools -->
<svg fill="#000000" height="800px" width="800px" version="1.1" id="Icons" xmlns="http://www.w3.org/2000/svg" xmlns:xlink="http://www.w3.org/1999/xlink" 
	 viewBox="0 0 32 32" xml:space="preserve">
<path d="M23,15c-4.4,0-8,3.6-8,8s3.6,8,8,8s8-3.6,8-8S27.4,15,23,15z M26.7,23.7C26.7,23.7,26.7,23.7,26.7,23.7l-3.1,3
	c-0.2,0.2-0.4,0.3-0.7,0.3c-0.3,0-0.5-0.1-0.7-0.3c-0.4-0.4-0.4-1,0-1.4l1.3-1.3H19c-0.6,0-1-0.4-1-1s0.4-1,1-1h4.5l-1.3-1.3
	c-0.4-0.4-0.4-1,0-1.4c0.4-0.4,1-0.4,1.4,0l3.1,3c0,0,0,0,0,0c0.2,0.2,0.3,0.4,0.3,0.7S26.9,23.5,26.7,23.7z"/>
<path d="M13,23c0-1.4,0.3-2.8,0.9-4c-0.2,0-0.4-0.1-0.5-0.2l-1.6-1.4l-5.1,4.4C6.5,21.9,6.2,22,6,22c-0.3,0-0.6-0.1-0.8-0.3
	c-0.4-0.4-0.3-1,0.1-1.4l4.9-4.2l-4.9-4.2c-0.4-0.4-0.5-1-0.1-1.4c0.4-0.4,1-0.5,1.4-0.1l7.3,6.4l7.3-6.4c0.4-0.4,1-0.3,1.4,0.1
	c0.4,0.4,0.3,1-0.1,1.4L21,13.2c0.6-0.1,1.3-0.2,2-0.2c1.4,0,2.8,0.3,4,0.8V9c0-1.7-1.3-3-3-3H4C2.3,6,1,7.3,1,9v14c0,1.7,1.3,3,3,3
	h9.5C13.2,25.1,13,24,13,23z"/>
</svg>