<?xml version="1.0" encoding="UTF-8"?>
<svg id="Capa_1" xmlns="http://www.w3.org/2000/svg" version="1.1" viewBox="0 0 800 800">
  <!-- Generator: Adobe Illustrator 29.8.2, SVG Export Plug-In . SVG Version: 2.1.1 Build 3)  -->
  <defs>
    <style>
      .st0 {
        fill: #ffffeb;
      }
    </style>
  </defs>
  <path class="st0" d="M502.09,0H180.81c-46.97,0-85.15,38.2-85.15,85.15v629.71c0,46.94,38.18,85.15,85.15,85.15h438.39c46.91,0,85.15-38.21,85.15-85.15V201.52L502.09,0ZM619.19,747.83H180.81c-18.2,0-33-14.78-33-32.98V85.15c0-18.17,14.8-32.95,33-32.95l301.78-.31v111.53c0,32.61,26.46,59.07,59.05,59.07l109.31-.31,1.2,492.68c0,18.2-14.75,32.97-32.95,32.97Z"/>
  <path class="st0" d="M493.49,408.28h-40.87v-121.22c0-12.3-9.96-22.27-22.25-22.27h-60.77c-12.27,0-22.23,9.97-22.23,22.27v121.22h-40.88c-6.74,0-12.81,4.08-15.43,10.33-2.59,6.22-1.18,13.42,3.64,18.22l93.46,93.47c6.54,6.54,17.13,6.54,23.64,0l93.51-93.47c4.79-4.8,6.2-11.99,3.64-18.22-2.61-6.25-8.7-10.33-15.45-10.33Z"/>
</svg>